The Hurt Locker ~ DvdRip ~ [IYYAPPAN]

GUYS AFTER DOWNLOAD COMPLETES SEED AS MUCH AS YOU CAN......

DONT FORGET TO SAY THANKS IF U LIKE MY POST........

SCREENSHOTS:-
 
http://bayimg.com/nAlILaACh
 
http://bayimg.com/NALiNAaCH
 
http://bayimg.com/nAliOaaCH
 
http://bayimg.com/nalIpaaCH
 
http://bayimg.com/oaLiBaacH
 
http://bayimg.com/oaLIcAACH

Format                           : AVI
Format/Info                      : Audio Video Interleave
File size                        : 1.36 GiB
Duration                         : 2h 5mn
Overall bit rate                 : 1 556 Kbps
Writing application              : VirtualDubMod 1.5.10.2 (build 2542/release)
Writing library                  : VirtualDubMod build 2542/release
Original source form             : IYYAPPAN

Video
ID                               : 0
Format                           : MPEG-4 Visual
Format settings, BVOP            : Yes
Format settings, QPel            : No
Format settings, GMC             : No warppoints
Format settings, Matrix          : Default (H.263)
Codec ID                         : XVID
Codec ID/Hint                    : XviD
Duration                         : 2h 5mn
Bit rate                         : 1 421 Kbps
Width                            : 624 pixels
Height                           : 336 pixels
Display aspect ratio             : 1.857
Frame rate                       : 25.000 fps
Resolution                       : 24 bits
Colorimetry                      : 4:2:0
Scan type                        : Progressive
Bits/(Pixel*Frame)               : 0.271
Stream size                      : 1.25 GiB (91%)


Audio
ID                               : 1
Format                           : MPEG Audio
Format version                   : Version 1
Format profile                   : Layer 3
Codec ID                         : 55
Codec ID/Hint                    : MP3
Duration                         : 2h 5mn
Bit rate mode                    : Variable
Bit rate                         : 122 Kbps
Nominal bit rate                 : 128 Kbps
Channel(s)                       : 2 channels
Sampling rate                    : 48.0 KHz
Resolution                       : 16 bits
Stream size                      : 109 MiB (8%)
Alignment                        : Aligned on interleaves
Interleave, duration             : 24 ms (0.60 video frame)
Interleave, preload duration     : 513 ms
Writing library                  : LAME3.99a
Encoding settings                : -m j -V 4 -q 2 -lowpass 17 --abr 128
 

